<svg data-v-fde0c5aa="" xmlns="http://www.w3.org/2000/svg" viewBox="0 0 120 25" class="iconLeft"><!----><defs data-v-fde0c5aa=""><!----></defs><rect data-v-fde0c5aa="" fill="transparent" x="0" y="0" width="300px" height="300px" class="logo-background-square"></rect><defs data-v-fde0c5aa=""><!----></defs><g data-v-fde0c5aa="" id="59cf512e-aeb5-47ba-9af3-04a9542fc15d" fill="#000000" transform="matrix(1.0272889795314997,0,0,1.0272889795314997,52.122538108823704,5.380887609423743)"><path d="M0.95 13.26C1.22 13.34 1.51 13.44 1.95 13.44C3.23 13.44 3.99 12.57 4.56 11.02L7.45 3.22L5.63 3.22L3.84 8.29L2.03 3.22L0.14 3.22L2.97 10.43L2.83 10.84C2.53 11.56 2.17 11.80 1.62 11.80C1.22 11.80 1.05 11.72 0.81 11.62L0.95 13.26ZM7.70 6.86C7.70 9.46 9.28 10.71 11.24 10.71C13.22 10.71 14.80 9.46 14.80 6.86C14.80 4.26 13.22 3.01 11.24 3.01C9.28 3.01 7.70 4.26 7.70 6.86ZM9.55 6.86C9.55 5.32 10.23 4.55 11.24 4.55C12.25 4.55 12.95 5.32 12.95 6.86C12.95 8.41 12.25 9.17 11.24 9.17C10.23 9.17 9.55 8.41 9.55 6.86ZM20.59 3.22L20.59 7.18C20.59 8.48 19.94 9.16 19.08 9.16C18.19 9.16 17.85 8.60 17.85 7.63L17.85 3.22L16.00 3.22L16.00 7.69C16.00 9.42 16.59 10.71 18.61 10.71C19.52 10.71 20.19 10.32 20.72 9.45L20.72 10.50L22.44 10.50L22.44 3.22ZM25.91 10.50L25.91 6.73C25.91 5.50 26.31 4.56 27.31 4.56C27.92 4.56 28.31 4.98 28.31 5.98L28.31 10.50L30.16 10.50L30.16 6.38C30.16 5.29 30.66 4.56 31.54 4.56C32.33 4.56 32.54 5.21 32.54 6.02L32.54 10.50L34.38 10.50L34.38 5.52C34.38 3.89 33.50 3.01 32.10 3.01C31.19 3.01 30.42 3.39 29.96 4.35C29.67 3.50 28.95 3.01 27.89 3.01C26.92 3.01 26.29 3.36 25.79 4.26L25.79 3.22L24.07 3.22L24.07 10.50ZM42.55 7.38C42.55 7.34 42.56 6.93 42.56 6.61C42.56 4.27 41.06 3.01 39.12 3.01C37.21 3.01 35.59 4.26 35.59 6.86C35.59 9.46 37.20 10.71 39.12 10.71C40.81 10.71 41.93 9.95 42.43 8.46L40.71 8.09C40.52 8.75 39.96 9.17 39.23 9.17C38.26 9.17 37.51 8.61 37.44 7.38ZM39.07 4.55C40.00 4.55 40.61 5.17 40.67 6.08L37.46 6.08C37.59 5.07 38.33 4.55 39.07 4.55ZM46.89 10.50L48.30 5.40L49.60 10.50L51.27 10.50L53.54 3.22L51.76 3.22L50.39 8.25L49.11 3.22L47.45 3.22L46.14 8.40L44.86 3.22L42.99 3.22L45.19 10.50ZM56.34 2.18L56.34 0.42L54.49 0.42L54.49 2.18ZM56.34 10.50L56.34 3.22L54.49 3.22L54.49 10.50Z"></path></g><defs data-v-fde0c5aa=""><linearGradient data-v-fde0c5aa="" gradientTransform="rotate(25)" id="8e3f7666-c5ac-4a8b-84f1-f2fca27b662a" x1="0%" y1="0%" x2="100%" y2="0%"><stop data-v-fde0c5aa="" offset="0%" stop-color="#006678" stop-opacity="1"></stop><stop data-v-fde0c5aa="" offset="100%" stop-color="#4FA8FF" stop-opacity="1"></stop></linearGradient></defs><g data-v-fde0c5aa="" id="6b8c4258-ec84-4336-acf6-047959daea60" stroke="none" fill="url(#8e3f7666-c5ac-4a8b-84f1-f2fca27b662a)" transform="matrix(1.0708237052053258,0,0,1.0708237052053258,10,-4.633179283285214)"><path d="M16 19.586l7.496-12.954H8.504zM7.496 12.414L0 25.368h14.992zM24.504 12.414l-7.496 12.954H32z"></path></g><!----></svg>